{"title":"Rick and Morty S01E08 Rixty Minutes (1920x1080) [Phr0stY].mkv","uid":9783511,"size":907986439,"categoryP":"video","categoryS":"hd___tv_shows","magnet":"?xt=urn:btih:df68d79310a6cb84c976a3a42229f25a612f9acb&amp;dn=Rick+and+Morty+S01E08+Rixty+Minutes+%281920x1080%29+%5BPhr0stY%5D.mkv&amp;tr=udp%3A%2F%2Ftracker.openbittorrent.com%3A80&amp;tr=udp%3A%2F%2Fopen.demonii.com%3A1337&amp;tr=udp%3A%2F%2Ftracker.coppersurfer.tk%3A6969&amp;tr=udp%3A%2F%2Fexodus.desync.com%3A6969","seeders":11,"leechers":0,"uploader":"frostyon420","files":-1,"time":1395132129,"description":"ALWAYS HD never RE-ENCODED! over 600 torrents and counting\n\nJoin me on SuprBay for updates on my torrents, or to make torrent requests (if i can access the content online). Please Let me know if need to fix something or if i need to re-seed any of my torrents.  &lt;a href=&quot;\nhttps://forum.suprbay.org/showthread.php?tid=369&quot; rel=&quot;nofollow&quot; target=&quot;_NEW&quot;&gt;\nhttps://forum.suprbay.org/showthread.php?tid=369&lt;/a&gt; \n\nMy RSS feed &lt;a href=&quot;\nhttp://rss.thepiratebay.sx/user/178e8d96586bbd0dcb5c2729df9a5c4d&quot; rel=&quot;nofollow&quot; target=&quot;_NEW&quot;&gt;\nhttp://rss.thepiratebay.sx/user/178e8d96586bbd0dcb5c2729df9a5c4d&lt;/a&gt;\n\n\nSeedbox supported\n\n[Itunes-rip]\n\n\nComplete name                            : C:UsersPhr0stYDesktopRick and Morty S01E08 Rixty Minutes (1920x1080) [Phr0stY].mkv\nFormat                                   : Matroska\nFormat version                           : Version 4 / Version 2\nFile size                                : 866 MiB\nDuration                                 : 22mn 16s\nOverall bit rate                         : 5 434 Kbps\nEncoded date                             : UTC 2014-03-18 07:15:14\nWriting application                      : mkvmerge v6.8.0 ('Theme for Great Cities') 64bit built on Mar  2 2014 21:34:26\nWriting library                          : libebml v1.3.0 + libmatroska v1.4.1\n\nVideo\nID                                       : 1\nFormat                                   : AVC\nFormat/Info                              : Advanced Video Codec\nFormat profile                           : &lt;a class=&quot;__cf_email__&quot; href=&quot;/cdn-cgi/l/email-protection&quot; data-cfemail=&quot;632b0a040b232f574d53&quot;&gt;[email&amp;#160;protected]&lt;/a&gt;&lt;script cf-hash='f9e31' type=&quot;text/javascript&quot;&gt;\n/* &lt;![CDATA[ */!function(){try{var t=&quot;currentScript&quot;in document?document.currentScript:function(){for(var t=document.getElementsByTagName(&quot;script&quot;),e=t.length;e--;)if(t[e].getAttribute(&quot;cf-hash&quot;))return t[e]}();if(t&amp;&amp;t.previousSibling){var e,r,n,i,c=t.previousSibling,a=c.getAttribute(&quot;data-cfemail&quot;);if(a){for(e=&quot;&quot;,r=parseInt(a.substr(0,2),16),n=2;a.length-n;n+=2)i=parseInt(a.substr(n,2),16)^r,e+=String.fromCharCode(i);e=document.createTextNode(e),c.parentNode.replaceChild(e,c)}}}catch(u){}}();/* ]]&gt; */&lt;/script&gt;\nFormat settings, CABAC                   : Yes\nFormat settings, ReFrames                : 4 frames\nCodec ID                                 : V_MPEG4/ISO/AVC\nDuration                                 : 22mn 16s\nBit rate                                 : 4 942 Kbps\nWidth                                    : 1 920 pixels\nHeight                                   : 1 080 pixels\nDisplay aspect ratio                     : 16:9\nFrame rate mode                          : Constant\nFrame rate                               : 23.976 fps\nColor space                              : YUV\nChroma subsampling                       : 4:2:0\nBit depth                                : 8 bits\nScan type                                : Progressive\nBits/(Pixel*Frame)                       : 0.099\nStream size                              : 788 MiB (91%)\nLanguage                                 : English\nDefault                                  : Yes\nForced                                   : No\nColor primaries                          : BT.709\nTransfer characteristics                 : BT.709\nMatrix coefficients                      : BT.709\n\nAudio\nID                                       : 2\nFormat                                   : AC-3\nFormat/Info                              : Audio Coding 3\nMode extension                           : CM (complete main)\nFormat settings, Endianness              : Big\nCodec ID                                 : A_AC3\nDuration                                 : 22mn 16s\nBit rate mode                            : Constant\nBit rate                                 : 384 Kbps\nChannel(s)                               : 6 channels\nChannel positions                        : Front: L C R, Side: L R, LFE\nSampling rate                            : 48.0 KHz\nBit depth                                : 16 bits\nCompression mode                         : Lossy\nStream size                              : 61.2 MiB (7%)\nLanguage                                 : English\nDefault                                  : Yes\nForced                                   : No","torrent":{"xt":"urn:btih:df68d79310a6cb84c976a3a42229f25a612f9acb","amp;dn":"Rick+and+Morty+S01E08+Rixty+Minutes+%281920x1080%29+%5BPhr0stY%5D.mkv","amp;tr":["udp%3A%2F%2Ftracker.openbittorrent.com%3A80","udp%3A%2F%2Fopen.demonii.com%3A1337","udp%3A%2F%2Ftracker.coppersurfer.tk%3A6969","udp%3A%2F%2Fexodus.desync.com%3A6969"],"infoHash":"df68d79310a6cb84c976a3a42229f25a612f9acb","infoHashBuffer":{"type":"Buffer","data":[223,104,215,147,16,166,203,132,201,118,163,164,34,41,242,90,97,47,154,203]},"announce":[],"urlList":[]}}